<svg xmlns="http://www.w3.org/2000/svg" width="800" height="600" viewBox="0 0 800 600">
<defs><linearGradient id="sky" x1="0" y1="0" x2="0" y2="1"><stop offset="0" stop-color="#dff0e2"/><stop offset="1" stop-color="#f3ece1"/></linearGradient><linearGradient id="wood" x1="0" y1="0" x2="1" y2="0"><stop offset="0" stop-color="#a76c3f"/><stop offset="1" stop-color="#c98f5c"/></linearGradient><linearGradient id="green" x1="0" y1="0" x2="0" y2="1"><stop offset="0" stop-color="#3d6b4a"/><stop offset="1" stop-color="#1f3a2a"/></linearGradient></defs>
<rect width="800" height="600" fill="#d8c19a"/>
<rect x="0" y="0" width="800" height="600" fill="#e8d9be"/>
<rect x="0" y="0" width="800" height="600" fill="#00000000"/>
<g stroke="#c2a878" stroke-width="4">
  <line x1="0" y1="150" x2="800" y2="150"/><line x1="0" y1="300" x2="800" y2="300"/><line x1="0" y1="450" x2="800" y2="450"/>
</g>
<rect x="220" y="360" width="360" height="120" rx="10" fill="#7a4f2c"/>
<circle cx="300" cy="340" r="16" fill="#ffb347"/>
<circle cx="400" cy="340" r="16" fill="#ffb347"/>
<circle cx="500" cy="340" r="16" fill="#ffb347"/>
<g fill="#c9822f"><ellipse cx="300" cy="310" rx="6" ry="18"/><ellipse cx="400" cy="310" rx="6" ry="18"/><ellipse cx="500" cy="310" rx="6" ry="18"/></g>
</svg>