<svg xmlns="http://www.w3.org/2000/svg" width="800" height="600" viewBox="0 0 800 600">
<defs><linearGradient id="sky" x1="0" y1="0" x2="0" y2="1"><stop offset="0" stop-color="#dff0e2"/><stop offset="1" stop-color="#f3ece1"/></linearGradient><linearGradient id="wood" x1="0" y1="0" x2="1" y2="0"><stop offset="0" stop-color="#a76c3f"/><stop offset="1" stop-color="#c98f5c"/></linearGradient><linearGradient id="green" x1="0" y1="0" x2="0" y2="1"><stop offset="0" stop-color="#3d6b4a"/><stop offset="1" stop-color="#1f3a2a"/></linearGradient></defs>
<rect width="800" height="600" fill="#2a3b4d"/><g transform="translate(400,420) scale(2.0)">
      <rect x="-90" y="-10" width="180" height="110" fill="#e9ddc8" stroke="#c9b998" stroke-width="3"/>
      <polygon points="-100,-10 0,-90 100,-10" fill="url(#wood)"/>
      <rect x="-16" y="40" width="32" height="60" fill="#7a4f2c"/>
      <rect x="-70" y="10" width="34" height="34" fill="#bcdcec" stroke="#7a4f2c" stroke-width="3"/>
      <rect x="36" y="10" width="34" height="34" fill="#bcdcec" stroke="#7a4f2c" stroke-width="3"/>
      <rect x="-6" y="-30" width="12" height="26" fill="#7a4f2c"/>
    </g><g transform="translate(80,470) scale(1.4)"><polygon points="0,-60 -30,0 30,0" fill="#2f5a3f"/><polygon points="0,-40 -24,10 24,10" fill="#2f5a3f"/><polygon points="0,-18 -18,20 18,20" fill="#2f5a3f"/><rect x="-4" y="18" width="8" height="16" fill="#5a4632"/></g><g transform="translate(720,460) scale(1.5)"><polygon points="0,-60 -30,0 30,0" fill="#234d31"/><polygon points="0,-40 -24,10 24,10" fill="#234d31"/><polygon points="0,-18 -18,20 18,20" fill="#234d31"/><rect x="-4" y="18" width="8" height="16" fill="#5a4632"/></g></svg>